<svg id="Layer_1" data-name="Layer 1" xmlns="http://www.w3.org/2000/svg" viewBox="0 0 1160.85 247.06">
	<title>
		Logo
	</title>
	<g>
		<path d="M35.14,87.43V32.69H13.87V28.15H61.46v4.54H40.27V87.43Z" style="fill: #41505b" />
		<path d="M103,61.45v26H97.87V61.78c0-4-.81-7-2.44-8.83s-4.2-2.77-7.73-2.77A13,13,0,0,0,78,53.88q-3.65,3.69-3.65,9.92V87.43H69.2V28.15h5.13V53.46a13.39,13.39,0,0,1,5.59-5.8,17,17,0,0,1,8.37-2Q103,45.64,103,61.45Z" style="fill: #41505b" />
		<path d="M149.92,67.67H119.06q.25,7.65,4,11.73t10.76,4.08a20.22,20.22,0,0,0,13.37-5l2,4a19.77,19.77,0,0,1-6.85,4A24.8,24.8,0,0,1,133.86,88q-9.33,0-14.71-5.64t-5.39-15.47a24.74,24.74,0,0,1,2.4-11.14,17.79,17.79,0,0,1,6.73-7.48,18.66,18.66,0,0,1,10-2.65q8,0,12.53,5.21t4.54,14.55ZM123.43,53.54q-3.53,3.7-4.2,10.35h26q-.17-6.73-3.36-10.39t-9-3.66A12.42,12.42,0,0,0,123.43,53.54Z" style="fill: #41505b" />
	</g>
	<g>
		<path d="M229.71,239.88Q203.4,232.7,187,220.74l19.48-44.42a147.73,147.73,0,0,0,37.24,16.75,141.56,141.56,0,0,0,40,5.81q20.51,0,31.27-5.64t10.76-15.89q0-9.24-9.73-15t-37.08-11.62q-33.83-7.17-53-17.08t-26.83-23.24q-7.69-13.32-7.69-32.8a67.2,67.2,0,0,1,12.47-39.81q12.48-17.59,35.2-27.68T291.22,0a174,174,0,0,1,50.4,7.35q24.44,7.35,38.1,19L360.59,70.74q-32.8-22.56-69-22.56-17.42,0-28,6.67T253,72.44A15.07,15.07,0,0,0,256.71,83q3.75,4.09,14,8t30.41,8q32.81,7.17,51.6,17.25t26.65,23.41q7.86,13.32,7.86,31.78,0,35.53-27.34,55.53t-76.88,20A201.89,201.89,0,0,1,229.71,239.88Z" style="fill: #41505b" />
		<path d="M582.69,3.08H644.2V244H582.69V146.59H484.28V244H422.77V3.08h61.51V96.71h98.41Z" style="fill: #41505b" />
		<path d="M959.93,3.08h116.52q40,0,62.19,20.33T1160.85,80q0,35.88-22.38,56.38t-62,20.5H1022.8V244H959.93Zm108,106.61q17.43,0,25.8-7.18t8.37-22.21q0-15-8.37-22.38t-25.8-7.34H1022.8v59.11Z" style="fill: #41505b" />
	</g>
	<g id="_7j8MWZ.tif" data-name="7j8MWZ.tif">
		<g>
			<path d="M809.19,248.25h-4.46a21,21,0,0,0-2.88-.67c-3-.26-5.92-.33-8.86-.64-18.26-1.94-35.4-7.54-50.71-17.62-41.92-27.6-61.27-66.65-57.64-116.79,1.27-17.54,6.8-33.89,15.6-49.09,28.21-48.71,83.83-71.49,137-58a122.74,122.74,0,0,1,89.68,146.68c-8.56,37-30.19,64.34-63.74,82.08a114.86,114.86,0,0,1-51.4,13.43A11.76,11.76,0,0,0,809.19,248.25Zm59.23-60.64c-.62-7.19-1.17-14.08-1.79-21-.67-7.36-1.4-14.71-2.08-22.06-.62-6.62-1.19-13.25-1.81-19.87-.86-9.29-1.78-18.56-2.64-27.85-.43-4.69-.79-9.38-1.21-14.07-.18-2-.9-3.28-3.29-3a37.2,37.2,0,0,1-5.28,0c-2.31,0-5.09.59-6.77-.48-1.27-.81-1.11-3.83-1.63-5.86-4.68-18.51-21-29.11-40-26-14.46,2.4-26.4,15.3-27.5,29.84-.15,2-1,2.54-2.8,2.5-3.61-.08-7.24,0-10.85,0-1.68,0-2.56.4-2.58,2.31,0,2.3-.37,4.6-.58,6.9q-1.08,11.31-2.15,22.61c-.61,6.53-1.14,13.06-1.75,19.59-.69,7.26-1.44,14.52-2.14,21.78q-1,10.61-2,21.22c-.4,4.39-.72,8.78-1.1,13.38Z" style="fill: #ebaa2e" />
			<path d="M779.25,79.61c-.52-12.9,10.69-26.08,24.64-28.4a29.94,29.94,0,0,1,34,25.65c.25,1.73.16,3-2.27,3-18.26-.07-36.51,0-54.76,0A11.27,11.27,0,0,1,779.25,79.61Z" style="fill: #ebaa2e" />
			<path d="M776.49,85.88a4,4,0,0,1,4,3.85c-.11,1.88-2.34,4.16-4.07,3.9-2.11-.31-3.58-1.5-3.68-3.83A3.83,3.83,0,0,1,776.49,85.88Z" style="fill: #ebaa2e" />
			<path d="M840.39,85.88a3.52,3.52,0,0,1,3.72,3.85c0,2.09-1.85,4.09-3.83,3.85a3.86,3.86,0,0,1,.11-7.7Z" style="fill: #ebaa2e" />
		</g>
	</g>
</svg>
