<svg id="Layer_1" data-name="Layer 1" xmlns="http://www.w3.org/2000/svg" viewBox="0 0 571.85 573.58">
	<title>
		shopIcon
	</title>
	<g id="_7j8MWZ.tif" data-name="7j8MWZ.tif">
		<g>
			<path d="M290.61,573.58H280.25a49.55,49.55,0,0,0-6.7-1.55c-6.86-.61-13.75-.76-20.59-1.49C210.48,566,170.64,553,135,529.57,37.55,465.37-7.44,374.59,1,258c3-40.8,15.82-78.83,36.28-114.16C102.88,30.56,232.2-22.4,355.91,8.86,506.77,47,599.52,198.38,564.44,350c-19.91,86-70.21,149.61-148.22,190.88a267.4,267.4,0,0,1-119.54,31.22C294.65,572.1,292.64,573.05,290.61,573.58Zm137.74-141c-1.42-16.72-2.72-32.74-4.17-48.74-1.54-17.11-3.25-34.19-4.83-51.29-1.43-15.4-2.75-30.82-4.19-46.22-2-21.58-4.14-43.16-6.15-64.75-1-10.9-1.84-21.82-2.82-32.73-.41-4.58-2.08-7.61-7.65-7a89.82,89.82,0,0,1-12.28.07c-5.37-.12-11.83,1.37-15.73-1.12-2.95-1.88-2.6-8.91-3.79-13.63-10.9-43-48.87-67.7-92.94-60.38-33.64,5.58-61.41,35.58-64,69.39-.35,4.56-2.27,5.9-6.51,5.81-8.41-.18-16.83.07-25.24-.09-3.9-.08-6,.92-6,5.37-.06,5.35-.85,10.7-1.36,16-1.66,17.52-3.37,35-5,52.56-1.41,15.18-2.65,30.38-4.08,45.57-1.59,16.88-3.34,33.75-5,50.63-1.59,16.45-3.18,32.9-4.68,49.36-.93,10.2-1.69,20.41-2.56,31.1Z" />
			<path d="M221,181.42c-1.21-30,24.86-60.63,57.29-66,32.91-5.48,72.62,16.45,78.95,59.64.59,4,.38,7-5.28,7-42.44-.16-84.88-.08-127.33-.11A24,24,0,0,1,221,181.42Z" />
			<path d="M214.58,196c5,0,9.44,4.36,9.19,8.94-.25,4.37-5.45,9.68-9.46,9.08-4.92-.73-8.34-3.49-8.57-8.91A8.9,8.9,0,0,1,214.58,196Z" />
			<path d="M363.19,196c5.3,0,8.67,3.47,8.63,8.95,0,4.85-4.31,9.5-8.9,8.95-4.95-.58-8.21-3.42-8.35-8.86A8.48,8.48,0,0,1,363.19,196Z" />
		</g>
	</g>
</svg>
